<?xml version="1.0" encoding="UTF-8" standalone="no"?>
<svg width="118px" height="77px" viewBox="0 0 118 77" version="1.1" xmlns="http://www.w3.org/2000/svg" xmlns:xlink="http://www.w3.org/1999/xlink">
    <!-- Generator: Sketch 39.1 (31720) - http://www.bohemiancoding.com/sketch -->
    <title>Custom_Look_Icon</title>
    <desc>Created with Sketch.</desc>
    <defs></defs>
    <g id="Page-1" stroke="none" stroke-width="1" fill="none" fill-rule="evenodd">
        <g id="Website-Typedash-Option-2" transform="translate(-788.000000, -860.000000)" stroke="#16D28D" stroke-width="1.235475">
            <g id="Features" transform="translate(347.000000, 849.000000)">
                <path d="M506.767157,86.1525424 L481.353554,12 L467.413603,12 L442,86.1525424 L457.012255,86.1525424 L462.481005,68.6737288 L486.286152,68.6737288 L491.754902,86.1525424 L506.767157,86.1525424 Z M482.318627,55.9618644 L466.448529,55.9618644 L474.383578,30.220339 L482.318627,55.9618644 Z M525.746936,49.2881356 C527.140931,45.1567797 530.250613,43.1440678 535.07598,43.1440678 C541.402574,43.1440678 544.512255,45.7923729 544.512255,50.9830508 L544.512255,53.3135593 L535.504902,53.3135593 C521.779412,53.3135593 512.450368,60.1991525 512.450368,70.7923729 C512.450368,81.0677966 519.313113,87 528.856618,87 C535.719363,87 541.295343,84.4576271 545.477328,79.3728814 L546.871324,86.1525424 L557.808824,86.1525424 L557.808824,54.2669492 C557.808824,39.3305085 550.195466,31.9152542 535.07598,31.9152542 C524.245711,31.9152542 516.203431,37.8474576 514.487745,46.7457627 L525.746936,49.2881356 Z M526.390319,70.5805085 C526.390319,66.0254237 529.5,63.6949153 535.612132,63.6949153 L544.512255,63.6949153 L544.512255,64.7542373 C544.512255,68.0381356 543.22549,70.6864407 540.651961,72.6991525 C538.185662,74.7118644 535.290441,75.7711864 531.966299,75.7711864 C528.427696,75.7711864 526.390319,73.440678 526.390319,70.5805085 L526.390319,70.5805085 Z" id="Custom_Look_Icon"></path>
            </g>
        </g>
    </g>
</svg>