<?xml version="1.0" encoding="iso-8859-1"?>
<!-- Generator: Adobe Illustrator 16.0.0, SVG Export Plug-In . SVG Version: 6.00 Build 0)  -->
<!DOCTYPE svg PUBLIC "-//W3C//DTD SVG 1.1//EN" "http://www.w3.org/Graphics/SVG/1.1/DTD/svg11.dtd">
<svg xmlns="http://www.w3.org/2000/svg" xmlns:xlink="http://www.w3.org/1999/xlink" version="1.1" id="Capa_1" x="0px" y="0px" width="512px" height="512px" viewBox="0 0 445.667 445.667" style="enable-background:new 0 0 445.667 445.667;" xml:space="preserve">
<g>
	<g>
		<path d="M321.003,151.373H130.157c-2.421,0-4.692,1.168-6.101,3.137c-1.408,1.969-1.779,4.497-0.997,6.788l95.423,279.294    c1.037,3.035,3.89,5.075,7.097,5.075s6.06-2.04,7.097-5.075l95.424-279.294c0.783-2.291,0.412-4.818-0.997-6.788    C325.696,152.542,323.424,151.373,321.003,151.373z M140.645,166.373h70.384l-52.46,52.461L140.645,166.373z M225.58,414.969    l-11.748-34.385l35.689-35.689L225.58,414.969z M260.531,312.672l-52.101,52.102l-19.883-58.197l107.464-97.749L260.531,312.672z     M306.099,179.298l-122.838,111.81l-19.291-56.463l68.271-68.271h78.272L306.099,179.298z" fill="#db3e3e"/>
		<path d="M129.3,140.438c1.05,0,2.117-0.222,3.133-0.69c3.762-1.733,5.407-6.188,3.674-9.95    c-3.287-7.135-4.953-14.747-4.953-22.625c0-29.159,22.811-52.927,51.931-54.111c2.919-0.119,5.504-1.922,6.624-4.621    C198.131,28.127,217.779,15,239.763,15c29.868,0,54.168,24.3,54.168,54.168c0,5.123-0.729,10.226-2.168,15.168    c-0.847,2.911,0.142,6.045,2.505,7.944c12.458,10.006,19.838,24.895,20.245,40.847c0.105,4.141,3.553,7.376,7.689,7.306    c4.141-0.105,7.412-3.548,7.306-7.689c-0.479-18.736-8.483-36.32-22.14-48.961c1.039-4.805,1.562-9.702,1.562-14.615    C308.931,31.029,277.903,0,239.763,0c-26.497,0-50.333,14.933-61.968,38.42c-34.924,3.749-61.64,33.094-61.64,68.752    c0,10.06,2.129,19.784,6.329,28.9C123.75,138.82,126.463,140.438,129.3,140.438z" fill="#db3e3e"/>
		<path d="M215.577,59.913c-4.122-0.49-7.846,2.441-8.34,6.553c-0.493,4.113,2.44,7.847,6.553,8.34    c13.297,1.596,24.866,16.434,28.367,29.858c0.88,3.374,3.921,5.609,7.252,5.609c0.626,0,1.263-0.079,1.897-0.245    c4.008-1.045,6.41-5.142,5.364-9.15C251.849,82.393,236.185,62.386,215.577,59.913z" fill="#db3e3e"/>
	</g>
</g>
<g>
</g>
<g>
</g>
<g>
</g>
<g>
</g>
<g>
</g>
<g>
</g>
<g>
</g>
<g>
</g>
<g>
</g>
<g>
</g>
<g>
</g>
<g>
</g>
<g>
</g>
<g>
</g>
<g>
</g>
</svg>
