<?xml version="1.0" encoding="UTF-8" standalone="no"?>
<svg width="69px" height="82px" viewBox="0 0 69 82" version="1.1" xmlns="http://www.w3.org/2000/svg" xmlns:xlink="http://www.w3.org/1999/xlink">
    <!-- Generator: Sketch 39.1 (31720) - http://www.bohemiancoding.com/sketch -->
    <title>News_Icon</title>
    <desc>Created with Sketch.</desc>
    <defs></defs>
    <g id="Page-1" stroke="none" stroke-width="1" fill="none" fill-rule="evenodd">
        <g id="Website-Typedash-Option-2" transform="translate(-480.000000, -857.000000)">
            <g id="News_Icon" transform="translate(480.000000, 858.000000)">
                <path d="M66.780347,0.000116788321 C67.7006501,0.000116788321 67.7886007,60.3516496 67.370068,61.3519416 C65.9474084,62.5186569 38.4971475,79.4407007 35.7356521,79.4407007 C32.9741567,79.4407007 5.1053631,64.1858102 4.93830171,62.5186569 C4.77065414,60.8515036 3.33863926,10.0217226 2.86090232,8.95427737 C2.86090224,3.85916471 0.507497191,4.84907531 0.746961159,4.64773838 C2.2226571,3.40700018 6.53390808,-4.36718248 35.7356521,16.4217226 C35.7356521,16.4217226 65.8594577,0.000116788321 66.780347,0.000116788321 Z" id="Stroke-1" stroke="#16D28D" stroke-width="1.21125"></path>
                <g id="Group-10" transform="translate(39.786217, 12.190476)" stroke="#16D28D" stroke-width="1.21125">
                    <path d="M2.43938932,21.1949976 L12.5644816,15.7878373 C12.9519468,15.6103191 13.1999011,15.2243337 13.1999011,14.7992242 L13.1999011,3.76578658 C13.1999011,2.971626 12.3728007,2.44491067 11.648868,2.77775739 L1.1990318,8.67120195 C0.863150492,8.81134793 0.648022322,9.14185888 0.656228846,9.50448662 L0.890114786,20.2063844 C0.890114786,20.9999611 1.71545665,21.5266764 2.43938932,21.1949976 Z" id="Stroke-3"></path>
                    <path d="M23.0142376,19.4857866 L1.65499986,30.3992381" id="Stroke-15"></path>
                    <path d="M23.6545964,0 L17.1019127,3.3480781" id="Stroke-15"></path>
                    <path d="M23.3853138,4.57142857 L16.8326301,7.91950667" id="Stroke-15"></path>
                    <path d="M23.3853138,9.14285714 L16.8326301,12.4909352" id="Stroke-15"></path>
                    <path d="M23.0142376,27.1956696 L1.65499986,38.1091211" id="Stroke-17"></path>
                    <path d="M23.0142376,34.9055525 L1.65499986,45.8190041" id="Stroke-19"></path>
                    <path d="M23.0142376,42.6154355 L1.65499986,53.528887" id="Stroke-21"></path>
                </g>
                <g id="Group-10" transform="translate(18.074543, 38.928571) scale(-1, 1) translate(-18.074543, -38.928571) translate(7.074543, 11.428571)" stroke="#16D28D" stroke-width="1.21125">
                    <path d="M21.4233474,0.328119569 L0.0641096139,11.2415711" id="Stroke-17"></path>
                    <path d="M21.4233474,8.93796371 L0.0641096139,19.8514152" id="Stroke-19"></path>
                    <path d="M21.4233474,17.5478079 L0.0641096139,28.4612594" id="Stroke-21"></path>
                    <path d="M21.4839985,26.157652 L0.124760764,37.0711035" id="Stroke-17"></path>
                    <path d="M21.4839985,34.7674961 L0.124760764,45.6809477" id="Stroke-19"></path>
                    <path d="M21.4839985,43.3773403 L0.124760764,54.2907918" id="Stroke-21"></path>
                </g>
                <path d="M35.7356521,16.4217226 L35.9871235,79.287708" id="Stroke-23" stroke="#16D28D" stroke-width="1.21125"></path>
                <path d="" id="Path-2" stroke="#979797" stroke-width="0.8075"></path>
                <path d="" id="Path-3" stroke="#979797" stroke-width="0.8075"></path>
            </g>
        </g>
    </g>
</svg>